<svg width="134" height="200" viewBox="0 0 134 200" fill="none" xmlns="http://www.w3.org/2000/svg">
<path d="M74.582 18.5054C80.0166 18.5054 84.5967 18.9155 88.3223 19.7358C92.0479 20.5562 95.0557 21.7183 97.3457 23.2222C99.6357 24.7261 101.276 26.5547 102.268 28.708C103.259 30.8271 103.754 33.1855 103.754 35.7832C103.754 38.0391 103.396 40.1753 102.678 42.1919C101.994 44.2085 100.952 46.0371 99.5503 47.6777C98.1489 49.3184 96.3887 50.7368 94.2695 51.9331C92.1846 53.0952 89.7236 53.9839 86.8867 54.5991V54.8042C89.2451 55.3511 91.1763 56.1543 92.6802 57.2139C94.2183 58.2734 95.4487 59.5723 96.3716 61.1104C97.3286 62.6484 98.0635 64.4087 98.5762 66.3911C99.123 68.3394 99.6016 70.4927 100.012 72.8511C100.422 75.2778 100.781 77.4995 101.088 79.5161C101.43 81.4985 101.875 83.2246 102.421 84.6943C102.968 86.1299 103.703 87.2578 104.626 88.0781C105.583 88.8643 106.899 89.2573 108.574 89.2573C108.881 89.2573 109.309 89.2402 109.855 89.2061C110.437 89.1719 111.069 89.1035 111.752 89.001V92.9487C111.171 93.0854 110.539 93.2051 109.855 93.3076C109.172 93.4102 108.471 93.4785 107.753 93.5127C107.07 93.5811 106.386 93.6152 105.703 93.6152C105.053 93.6494 104.472 93.6665 103.959 93.6665C100.986 93.6665 98.6445 93.3589 96.9355 92.7437C95.2607 92.0942 93.9619 91.103 93.0391 89.77C92.1504 88.437 91.5181 86.7622 91.1421 84.7456C90.7661 82.729 90.4072 80.3364 90.0654 77.5679C89.5527 73.5347 89.04 70.1509 88.5273 67.4165C88.0146 64.6821 87.2969 62.4946 86.374 60.854C85.4512 59.1792 84.2036 58 82.6313 57.3164C81.0591 56.5986 78.9229 56.2397 76.2227 56.2397H66.584V88.8984H77.3506V93H46.3325V88.8984H56.5864V22.6069H46.3325V18.5054H74.582ZM66.584 52.1382H73.4028C77.0942 52.1382 80.1704 51.8306 82.6313 51.2153C85.1265 50.6001 87.126 49.6431 88.6299 48.3442C90.168 47.0112 91.2446 45.3364 91.8599 43.3198C92.5093 41.269 92.834 38.8081 92.834 35.937C92.834 33.5444 92.5776 31.5107 92.0649 29.8359C91.5522 28.127 90.5952 26.7427 89.1938 25.6831C87.8267 24.6235 85.9126 23.8545 83.4517 23.376C81.0249 22.8633 77.8633 22.6069 73.9668 22.6069H66.584V52.1382Z" fill="#F7A301"/>
<path d="M48.418 93.4946C42.9834 93.4946 38.4033 93.0845 34.6777 92.2642C30.9521 91.4438 27.9443 90.2817 25.6543 88.7778C23.3643 87.2739 21.7236 85.4453 20.7324 83.292C19.7412 81.1729 19.2456 78.8145 19.2456 76.2168C19.2456 73.9609 19.6045 71.8247 20.3223 69.8081C21.0059 67.7915 22.0483 65.9629 23.4497 64.3223C24.8511 62.6816 26.6113 61.2632 28.7305 60.0669C30.8154 58.9048 33.2764 58.0161 36.1133 57.4009V57.1958C33.7549 56.6489 31.8237 55.8457 30.3198 54.7861C28.7817 53.7266 27.5513 52.4277 26.6284 50.8896C25.6714 49.3516 24.9365 47.5913 24.4238 45.6089C23.877 43.6606 23.3984 41.5073 22.9883 39.1489C22.5781 36.7222 22.2192 34.5005 21.9116 32.4839C21.5698 30.5015 21.1255 28.7754 20.5786 27.3057C20.0317 25.8701 19.2969 24.7422 18.374 23.9219C17.417 23.1357 16.1011 22.7427 14.4263 22.7427C14.1187 22.7427 13.6914 22.7598 13.1445 22.7939C12.5635 22.8281 11.9312 22.8965 11.2476 22.999V19.0513C11.8286 18.9146 12.4609 18.7949 13.1445 18.6924C13.8281 18.5898 14.5288 18.5215 15.2466 18.4873C15.9302 18.4189 16.6138 18.3848 17.2974 18.3848C17.9468 18.3506 18.5278 18.3335 19.0405 18.3335C22.0142 18.3335 24.3555 18.6411 26.0645 19.2563C27.7393 19.9058 29.0381 20.897 29.9609 22.23C30.8496 23.563 31.4819 25.2378 31.8579 27.2544C32.2339 29.271 32.5928 31.6636 32.9346 34.4321C33.4473 38.4653 33.96 41.8491 34.4727 44.5835C34.9854 47.3179 35.7031 49.5054 36.626 51.146C37.5488 52.8208 38.7964 54 40.3687 54.6836C41.9409 55.4014 44.0771 55.7603 46.7773 55.7603H56.416V23.1016H45.6494V19H76.6675V23.1016H66.4136V89.3931H76.6675V93.4946H48.418ZM56.416 59.8618H49.5972C45.9058 59.8618 42.8296 60.1694 40.3687 60.7847C37.8735 61.3999 35.874 62.3569 34.3701 63.6558C32.832 64.9888 31.7554 66.6636 31.1401 68.6802C30.4907 70.731 30.166 73.1919 30.166 76.063C30.166 78.4556 30.4224 80.4893 30.9351 82.1641C31.4478 83.873 32.4048 85.2573 33.8062 86.3169C35.1733 87.3765 37.0874 88.1455 39.5483 88.624C41.9751 89.1367 45.1367 89.3931 49.0332 89.3931H56.416V59.8618Z" fill="#F7A301"/>
<path d="M7.51953 106.263C8.81348 106.263 9.90397 106.361 10.791 106.556C11.6781 106.751 12.3942 107.028 12.9395 107.386C13.4847 107.744 13.8753 108.18 14.1113 108.692C14.3473 109.197 14.4653 109.758 14.4653 110.377C14.4653 110.914 14.3799 111.423 14.209 111.903C14.0462 112.383 13.798 112.818 13.4644 113.209C13.1307 113.6 12.7116 113.937 12.207 114.222C11.7106 114.499 11.1247 114.71 10.4492 114.857V114.906C11.0107 115.036 11.4705 115.227 11.8286 115.479C12.1948 115.732 12.4878 116.041 12.7075 116.407C12.9354 116.773 13.1104 117.193 13.2324 117.665C13.3626 118.128 13.4766 118.641 13.5742 119.203C13.6719 119.78 13.7573 120.309 13.8306 120.79C13.9119 121.262 14.0177 121.673 14.1479 122.022C14.2782 122.364 14.4531 122.633 14.6729 122.828C14.9007 123.015 15.214 123.109 15.6128 123.109C15.686 123.109 15.7878 123.105 15.918 123.097C16.0563 123.089 16.2069 123.072 16.3696 123.048V123.988C16.2313 124.02 16.0807 124.049 15.918 124.073C15.7552 124.098 15.5884 124.114 15.4175 124.122C15.2547 124.138 15.092 124.146 14.9292 124.146C14.7746 124.155 14.6362 124.159 14.5142 124.159C13.8062 124.159 13.2487 124.085 12.8418 123.939C12.443 123.784 12.1338 123.548 11.9141 123.231C11.7025 122.914 11.5519 122.515 11.4624 122.035C11.3729 121.555 11.2874 120.985 11.2061 120.326C11.084 119.365 10.9619 118.56 10.8398 117.909C10.7178 117.258 10.5469 116.737 10.3271 116.346C10.1074 115.947 9.81038 115.667 9.43604 115.504C9.06169 115.333 8.55306 115.248 7.91016 115.248H5.61523V123.023H8.17871V124H0.793457V123.023H3.23486V107.24H0.793457V106.263H7.51953ZM5.61523 114.271H7.23877C8.11768 114.271 8.8501 114.198 9.43604 114.051C10.0301 113.905 10.5062 113.677 10.8643 113.368C11.2305 113.05 11.4868 112.652 11.6333 112.171C11.7879 111.683 11.8652 111.097 11.8652 110.414C11.8652 109.844 11.8042 109.36 11.6821 108.961C11.5601 108.554 11.3322 108.224 10.9985 107.972C10.673 107.72 10.2173 107.537 9.63135 107.423C9.05355 107.301 8.30078 107.24 7.37305 107.24H5.61523V114.271ZM27.356 120.692C27.0955 121.872 26.591 122.775 25.8423 123.402C25.0936 124.028 24.1211 124.342 22.9248 124.342C22.1029 124.342 21.3704 124.199 20.7275 123.915C20.0846 123.622 19.5394 123.227 19.0918 122.73C18.6442 122.234 18.3024 121.656 18.0664 120.997C17.8304 120.33 17.7124 119.622 17.7124 118.873C17.7124 118.108 17.8345 117.384 18.0786 116.7C18.3228 116.017 18.6686 115.423 19.1162 114.918C19.5719 114.413 20.1131 114.015 20.7397 113.722C21.3745 113.421 22.0825 113.27 22.8638 113.27C23.5799 113.27 24.2228 113.396 24.7925 113.648C25.3621 113.901 25.8464 114.255 26.2451 114.71C26.6439 115.158 26.9491 115.695 27.1606 116.322C27.3804 116.948 27.4984 117.636 27.5146 118.385H20.1538C20.1457 118.523 20.1416 118.617 20.1416 118.666C20.1416 118.706 20.1416 118.731 20.1416 118.739C20.1416 119.699 20.2108 120.48 20.3491 121.083C20.4956 121.685 20.695 122.157 20.9473 122.499C21.2077 122.832 21.5129 123.06 21.8628 123.182C22.2209 123.304 22.6156 123.365 23.0469 123.365C23.4456 123.365 23.82 123.312 24.1699 123.207C24.528 123.101 24.8494 122.934 25.1343 122.706C25.4191 122.47 25.6673 122.169 25.8789 121.803C26.0986 121.428 26.2736 120.981 26.4038 120.46C26.5666 120.476 26.7293 120.505 26.8921 120.545C27.0549 120.586 27.2095 120.635 27.356 120.692ZM25.0488 117.433C25.0244 116.757 24.9512 116.212 24.8291 115.797C24.7152 115.374 24.5605 115.044 24.3652 114.808C24.1699 114.572 23.938 114.413 23.6694 114.332C23.409 114.243 23.1201 114.198 22.8027 114.198C22.4691 114.198 22.1558 114.247 21.8628 114.344C21.578 114.442 21.3216 114.613 21.0938 114.857C20.8659 115.101 20.6746 115.431 20.52 115.846C20.3735 116.261 20.2718 116.79 20.2148 117.433H25.0488ZM37.1704 121.559C36.9507 122.511 36.5885 123.215 36.084 123.67C35.5794 124.118 34.8836 124.342 33.9966 124.342C33.5327 124.342 33.1136 124.285 32.7393 124.171C32.373 124.057 32.0597 123.878 31.7993 123.634C31.5389 123.382 31.3395 123.064 31.2012 122.682C31.0628 122.291 30.9937 121.819 30.9937 121.266V114.576H29.1626V113.6H30.9937V111.231L33.1909 110.865V113.6H36.3647V114.576H33.1909V121.534C33.1909 121.868 33.2194 122.14 33.2764 122.352C33.3415 122.564 33.431 122.73 33.5449 122.853C33.6589 122.975 33.7931 123.06 33.9478 123.109C34.1024 123.15 34.2773 123.17 34.4727 123.17C34.7331 123.17 34.9569 123.133 35.144 123.06C35.3312 122.979 35.494 122.861 35.6323 122.706C35.7788 122.543 35.9009 122.344 35.9985 122.108C36.1043 121.872 36.202 121.599 36.2915 121.29C36.4461 121.314 36.5967 121.347 36.7432 121.388C36.8896 121.428 37.0321 121.485 37.1704 121.559ZM44.2505 124H38.269V123.023H40.1001V114.576H38.269V113.6H42.2974V115.492H42.3462C42.4927 115.174 42.6717 114.885 42.8833 114.625C43.103 114.356 43.3431 114.125 43.6035 113.929C43.8639 113.734 44.1406 113.583 44.4336 113.478C44.7266 113.372 45.0236 113.319 45.3247 113.319C45.813 113.319 46.2158 113.461 46.5332 113.746C46.8506 114.031 47.0093 114.426 47.0093 114.93C47.0093 115.378 46.8872 115.728 46.6431 115.98C46.3989 116.224 46.0815 116.346 45.6909 116.346C45.284 116.346 44.9707 116.228 44.751 115.992C44.5394 115.756 44.4336 115.459 44.4336 115.101C44.4336 114.914 44.4702 114.71 44.5435 114.491C44.2261 114.605 43.929 114.788 43.6523 115.04C43.3838 115.284 43.1478 115.593 42.9443 115.968C42.7409 116.342 42.5822 116.778 42.4683 117.274C42.3543 117.762 42.2974 118.307 42.2974 118.91V123.023H44.2505V124ZM48.1079 118.897C48.1079 118.132 48.2259 117.408 48.4619 116.725C48.7061 116.041 49.0601 115.443 49.5239 114.93C49.9878 114.417 50.5534 114.015 51.2207 113.722C51.8962 113.421 52.6611 113.27 53.5156 113.27C54.362 113.27 55.1107 113.417 55.7617 113.709C56.4128 113.994 56.958 114.385 57.3975 114.881C57.8369 115.378 58.1665 115.956 58.3862 116.615C58.6141 117.274 58.728 117.974 58.728 118.714C58.728 119.479 58.606 120.204 58.3618 120.887C58.1258 121.571 57.7759 122.169 57.312 122.682C56.8481 123.194 56.2785 123.601 55.603 123.902C54.9357 124.195 54.1748 124.342 53.3203 124.342C52.474 124.342 51.7253 124.199 51.0742 123.915C50.4232 123.622 49.8779 123.227 49.4385 122.73C48.999 122.234 48.6654 121.656 48.4375 120.997C48.2178 120.338 48.1079 119.638 48.1079 118.897ZM50.5249 118.849C50.5249 119.736 50.5859 120.472 50.708 121.058C50.8301 121.644 51.0091 122.112 51.2451 122.462C51.4811 122.812 51.7782 123.06 52.1362 123.207C52.4943 123.345 52.9134 123.414 53.3936 123.414C53.8656 123.414 54.2847 123.341 54.6509 123.194C55.0171 123.048 55.3223 122.8 55.5664 122.45C55.8105 122.092 55.9937 121.616 56.1157 121.021C56.2459 120.419 56.311 119.667 56.311 118.763C56.311 117.876 56.25 117.14 56.1279 116.554C56.0059 115.968 55.8268 115.5 55.5908 115.15C55.3548 114.8 55.0537 114.556 54.6875 114.417C54.3294 114.271 53.9144 114.198 53.4424 114.198C52.9622 114.198 52.5391 114.271 52.1729 114.417C51.8148 114.564 51.5137 114.816 51.2695 115.174C51.0254 115.524 50.8382 116 50.708 116.603C50.5859 117.197 50.5249 117.945 50.5249 118.849ZM67.2852 106.263C68.5791 106.263 69.6696 106.361 70.5566 106.556C71.4437 106.751 72.1598 107.028 72.7051 107.386C73.2503 107.744 73.641 108.18 73.877 108.692C74.113 109.197 74.231 109.758 74.231 110.377C74.231 110.914 74.1455 111.423 73.9746 111.903C73.8118 112.383 73.5636 112.818 73.23 113.209C72.8963 113.6 72.4772 113.937 71.9727 114.222C71.4762 114.499 70.8903 114.71 70.2148 114.857V114.906C70.7764 115.036 71.2362 115.227 71.5942 115.479C71.9604 115.732 72.2534 116.041 72.4731 116.407C72.701 116.773 72.876 117.193 72.998 117.665C73.1283 118.128 73.2422 118.641 73.3398 119.203C73.4375 119.78 73.5229 120.309 73.5962 120.79C73.6776 121.262 73.7834 121.673 73.9136 122.022C74.0438 122.364 74.2188 122.633 74.4385 122.828C74.6663 123.015 74.9797 123.109 75.3784 123.109C75.4517 123.109 75.5534 123.105 75.6836 123.097C75.8219 123.089 75.9725 123.072 76.1353 123.048V123.988C75.9969 124.02 75.8464 124.049 75.6836 124.073C75.5208 124.098 75.354 124.114 75.1831 124.122C75.0203 124.138 74.8576 124.146 74.6948 124.146C74.5402 124.155 74.4019 124.159 74.2798 124.159C73.5718 124.159 73.0143 124.085 72.6074 123.939C72.2087 123.784 71.8994 123.548 71.6797 123.231C71.4681 122.914 71.3175 122.515 71.228 122.035C71.1385 121.555 71.0531 120.985 70.9717 120.326C70.8496 119.365 70.7275 118.56 70.6055 117.909C70.4834 117.258 70.3125 116.737 70.0928 116.346C69.873 115.947 69.576 115.667 69.2017 115.504C68.8273 115.333 68.3187 115.248 67.6758 115.248H65.3809V123.023H67.9443V124H60.5591V123.023H63.0005V107.24H60.5591V106.263H67.2852ZM65.3809 114.271H67.0044C67.8833 114.271 68.6157 114.198 69.2017 114.051C69.7957 113.905 70.2718 113.677 70.6299 113.368C70.9961 113.05 71.2524 112.652 71.3989 112.171C71.5535 111.683 71.6309 111.097 71.6309 110.414C71.6309 109.844 71.5698 109.36 71.4478 108.961C71.3257 108.554 71.0978 108.224 70.7642 107.972C70.4386 107.72 69.9829 107.537 69.397 107.423C68.8192 107.301 68.0664 107.24 67.1387 107.24H65.3809V114.271ZM87.1216 120.692C86.8612 121.872 86.3566 122.775 85.6079 123.402C84.8592 124.028 83.8867 124.342 82.6904 124.342C81.8685 124.342 81.1361 124.199 80.4932 123.915C79.8503 123.622 79.305 123.227 78.8574 122.73C78.4098 122.234 78.068 121.656 77.832 120.997C77.596 120.33 77.478 119.622 77.478 118.873C77.478 118.108 77.6001 117.384 77.8442 116.7C78.0884 116.017 78.4342 115.423 78.8818 114.918C79.3376 114.413 79.8787 114.015 80.5054 113.722C81.1401 113.421 81.8481 113.27 82.6294 113.27C83.3455 113.27 83.9884 113.396 84.5581 113.648C85.1278 113.901 85.612 114.255 86.0107 114.71C86.4095 115.158 86.7147 115.695 86.9263 116.322C87.146 116.948 87.264 117.636 87.2803 118.385H79.9194C79.9113 118.523 79.9072 118.617 79.9072 118.666C79.9072 118.706 79.9072 118.731 79.9072 118.739C79.9072 119.699 79.9764 120.48 80.1147 121.083C80.2612 121.685 80.4606 122.157 80.7129 122.499C80.9733 122.832 81.2785 123.06 81.6284 123.182C81.9865 123.304 82.3812 123.365 82.8125 123.365C83.2113 123.365 83.5856 123.312 83.9355 123.207C84.2936 123.101 84.6151 122.934 84.8999 122.706C85.1847 122.47 85.4329 122.169 85.6445 121.803C85.8643 121.428 86.0392 120.981 86.1694 120.46C86.3322 120.476 86.495 120.505 86.6577 120.545C86.8205 120.586 86.9751 120.635 87.1216 120.692ZM84.8145 117.433C84.79 116.757 84.7168 116.212 84.5947 115.797C84.4808 115.374 84.3262 115.044 84.1309 114.808C83.9355 114.572 83.7036 114.413 83.4351 114.332C83.1746 114.243 82.8857 114.198 82.5684 114.198C82.2347 114.198 81.9214 114.247 81.6284 114.344C81.3436 114.442 81.0872 114.613 80.8594 114.857C80.6315 115.101 80.4403 115.431 80.2856 115.846C80.1392 116.261 80.0374 116.79 79.9805 117.433H84.8145ZM93.2007 123.023H94.8486V124H89.1724V123.023H91.0034V114.576H89.1724V113.6H93.2007V115.37H93.2495C93.5832 114.694 94.0308 114.177 94.5923 113.819C95.1538 113.453 95.8781 113.27 96.7651 113.27C97.88 113.27 98.7101 113.559 99.2554 114.137C99.8006 114.706 100.073 115.524 100.073 116.59V123.023H101.843V124H96.228V123.023H97.876V116.249C97.876 115.606 97.7254 115.134 97.4243 114.833C97.1232 114.523 96.7 114.369 96.1548 114.369C95.7397 114.369 95.3532 114.458 94.9951 114.637C94.637 114.808 94.3237 115.077 94.0552 115.443C93.7948 115.809 93.5872 116.277 93.4326 116.847C93.278 117.416 93.2007 118.092 93.2007 118.873V123.023ZM113.074 120.692C112.813 121.872 112.309 122.775 111.56 123.402C110.811 124.028 109.839 124.342 108.643 124.342C107.821 124.342 107.088 124.199 106.445 123.915C105.802 123.622 105.257 123.227 104.81 122.73C104.362 122.234 104.02 121.656 103.784 120.997C103.548 120.33 103.43 119.622 103.43 118.873C103.43 118.108 103.552 117.384 103.796 116.7C104.041 116.017 104.386 115.423 104.834 114.918C105.29 114.413 105.831 114.015 106.458 113.722C107.092 113.421 107.8 113.27 108.582 113.27C109.298 113.27 109.941 113.396 110.51 113.648C111.08 113.901 111.564 114.255 111.963 114.71C112.362 115.158 112.667 115.695 112.878 116.322C113.098 116.948 113.216 117.636 113.232 118.385H105.872C105.863 118.523 105.859 118.617 105.859 118.666C105.859 118.706 105.859 118.731 105.859 118.739C105.859 119.699 105.929 120.48 106.067 121.083C106.213 121.685 106.413 122.157 106.665 122.499C106.925 122.832 107.231 123.06 107.581 123.182C107.939 123.304 108.333 123.365 108.765 123.365C109.163 123.365 109.538 123.312 109.888 123.207C110.246 123.101 110.567 122.934 110.852 122.706C111.137 122.47 111.385 122.169 111.597 121.803C111.816 121.428 111.991 120.981 112.122 120.46C112.284 120.476 112.447 120.505 112.61 120.545C112.773 120.586 112.927 120.635 113.074 120.692ZM110.767 117.433C110.742 116.757 110.669 116.212 110.547 115.797C110.433 115.374 110.278 115.044 110.083 114.808C109.888 114.572 109.656 114.413 109.387 114.332C109.127 114.243 108.838 114.198 108.521 114.198C108.187 114.198 107.874 114.247 107.581 114.344C107.296 114.442 107.039 114.613 106.812 114.857C106.584 115.101 106.392 115.431 106.238 115.846C106.091 116.261 105.99 116.79 105.933 117.433H110.767ZM127.002 124.171L123.999 116.773L120.972 124.171H119.946L115.967 114.576H114.148V113.6H120.105V114.576H118.359L121.094 121.351H121.143L124.268 113.539H125.012L128.149 121.351H128.198L130.884 114.576H129.175V113.6H133.728V114.576H131.946L128.04 124.171H127.002Z" fill="#0C0600"/>
</svg>
